<?xml version="1.0" encoding="UTF-8" standalone="no"?>
<!DOCTYPE svg PUBLIC "-//W3C//DTD SVG 1.1//EN"
 "http://www.w3.org/Graphics/SVG/1.1/DTD/svg11.dtd">
<!-- Generated by graphviz version 5.0.0 (20220707.1540)
 -->
<!-- Pages: 1 -->
<svg width="2300pt" height="1340pt"
 viewBox="0.00 0.00 2300.00 1340.35" xmlns="http://www.w3.org/2000/svg" xmlns:xlink="http://www.w3.org/1999/xlink">
<g id="graph0" class="graph" transform="scale(1 1) rotate(0) translate(4 1336.35)">
<polygon fill="white" stroke="transparent" points="-4,4 -4,-1336.35 2296,-1336.35 2296,4 -4,4"/>
<g id="clust1" class="cluster">
<title>cluster15172</title>
<polygon fill="#03c2fc" stroke="black" points="8,-796.9 8,-1202.4 978,-1202.4 978,-796.9 8,-796.9"/>
<text text-anchor="middle" x="493" y="-1187.2" font-family="Monospace" font-size="14.00">:http&#45;api</text>
</g>
<g id="clust2" class="cluster">
<title>cluster15183</title>
<polygon fill="#03c2fc" stroke="black" points="1496,-521.57 1496,-932.07 2259,-932.07 2259,-521.57 1496,-521.57"/>
<text text-anchor="middle" x="1877.5" y="-916.87" font-family="Monospace" font-size="14.00">:persistence</text>
</g>
<g id="clust3" class="cluster">
<title>cluster15191</title>
<polygon fill="#03c2fc" stroke="black" points="1316,-796.9 1316,-1067.23 1472,-1067.23 1472,-796.9 1316,-796.9"/>
<text text-anchor="middle" x="1394" y="-1052.03" font-family="Monospace" font-size="14.00">:auth</text>
</g>
<g id="clust4" class="cluster">
<title>cluster15194</title>
<polygon fill="#03c2fc" stroke="black" points="1579,-8 1579,-513.57 2176,-513.57 2176,-8 1579,-8"/>
<text text-anchor="middle" x="1877.5" y="-498.37" font-family="Monospace" font-size="14.00">:utilities</text>
</g>
<g id="clust5" class="cluster">
<title>cluster15202</title>
<polygon fill="#03c2fc" stroke="black" points="891,-653.73 891,-788.9 1488,-788.9 1488,-653.73 891,-653.73"/>
<text text-anchor="middle" x="1189.5" y="-773.7" font-family="Monospace" font-size="14.00">:core&#45;data&#45;structures</text>
</g>
<g id="clust6" class="cluster">
<title>cluster15207</title>
<polygon fill="#03c2fc" stroke="black" points="986,-796.9 986,-932.07 1289,-932.07 1289,-796.9 986,-796.9"/>
<text text-anchor="middle" x="1137.5" y="-916.87" font-family="Monospace" font-size="14.00">:core&#45;api</text>
</g>
<g id="clust7" class="cluster">
<title>cluster15210</title>
<polygon fill="#03c2fc" stroke="black" points="620,-1210.4 620,-1324.35 793,-1324.35 793,-1210.4 620,-1210.4"/>
<text text-anchor="middle" x="706.5" y="-1309.15" font-family="Monospace" font-size="14.00">andrewslai.clj.main</text>
</g>
<g id="clust8" class="cluster">
<title>cluster15212</title>
<polygon fill="#03c2fc" stroke="black" points="1526,-1077.84 1526,-1191.79 1716,-1191.79 1716,-1077.84 1526,-1077.84"/>
<text text-anchor="middle" x="1621" y="-1176.59" font-family="Monospace" font-size="14.00">andrewslai.clj.config</text>
</g>
<!-- node15173 -->
<g id="node1" class="node">
<title>node15173</title>
<ellipse fill="none" stroke="black" cx="389" cy="-988.15" rx="70.01" ry="48.17"/>
<text text-anchor="middle" x="389" y="-1006.95" font-family="Monospace" font-size="14.00">andrewslai</text>
<text text-anchor="middle" x="389" y="-991.95" font-family="Monospace" font-size="14.00">.clj</text>
<text text-anchor="middle" x="389" y="-976.95" font-family="Monospace" font-size="14.00">.http&#45;api</text>
<text text-anchor="middle" x="389" y="-961.95" font-family="Monospace" font-size="14.00">.articles</text>
</g>
<!-- node15177 -->
<g id="node5" class="node">
<title>node15177</title>
<ellipse fill="none" stroke="black" cx="276" cy="-852.98" rx="70.01" ry="48.17"/>
<text text-anchor="middle" x="276" y="-871.78" font-family="Monospace" font-size="14.00">andrewslai</text>
<text text-anchor="middle" x="276" y="-856.78" font-family="Monospace" font-size="14.00">.clj</text>
<text text-anchor="middle" x="276" y="-841.78" font-family="Monospace" font-size="14.00">.http&#45;api</text>
<text text-anchor="middle" x="276" y="-826.78" font-family="Monospace" font-size="14.00">.admin</text>
</g>
<!-- node15173&#45;&gt;node15177 -->
<g id="edge3" class="edge">
<title>node15173&#45;&gt;node15177</title>
<path fill="none" stroke="black" d="M354.17,-946.11C342.57,-932.44 329.54,-917.07 317.49,-902.87"/>
<polygon fill="black" stroke="black" points="320.04,-900.48 310.91,-895.12 314.71,-905.01 320.04,-900.48"/>
</g>
<!-- node15192 -->
<g id="node18" class="node">
<title>node15192</title>
<ellipse fill="none" stroke="black" cx="1394" cy="-852.98" rx="70.01" ry="48.17"/>
<text text-anchor="middle" x="1394" y="-871.78" font-family="Monospace" font-size="14.00">andrewslai</text>
<text text-anchor="middle" x="1394" y="-856.78" font-family="Monospace" font-size="14.00">.clj</text>
<text text-anchor="middle" x="1394" y="-841.78" font-family="Monospace" font-size="14.00">.auth</text>
<text text-anchor="middle" x="1394" y="-826.78" font-family="Monospace" font-size="14.00">.core</text>
</g>
<!-- node15173&#45;&gt;node15192 -->
<g id="edge1" class="edge">
<title>node15173&#45;&gt;node15192</title>
<path fill="none" stroke="black" d="M435.67,-952.1C444.36,-947.16 453.66,-942.83 463,-940.07 507.05,-927.01 1246.49,-946.82 1290,-932.07 1310.4,-925.15 1330.03,-912.55 1346.64,-899.46"/>
<polygon fill="black" stroke="black" points="1349.01,-902.04 1354.55,-893.01 1344.58,-896.62 1349.01,-902.04"/>
</g>
<!-- node15208 -->
<g id="node31" class="node">
<title>node15208</title>
<ellipse fill="none" stroke="black" cx="1211" cy="-852.98" rx="70.01" ry="48.17"/>
<text text-anchor="middle" x="1211" y="-871.78" font-family="Monospace" font-size="14.00">andrewslai</text>
<text text-anchor="middle" x="1211" y="-856.78" font-family="Monospace" font-size="14.00">.clj</text>
<text text-anchor="middle" x="1211" y="-841.78" font-family="Monospace" font-size="14.00">.api</text>
<text text-anchor="middle" x="1211" y="-826.78" font-family="Monospace" font-size="14.00">.articles</text>
</g>
<!-- node15173&#45;&gt;node15208 -->
<g id="edge2" class="edge">
<title>node15173&#45;&gt;node15208</title>
<path fill="none" stroke="black" d="M435.68,-952.11C444.36,-947.18 453.66,-942.84 463,-940.07 498.89,-929.38 1102.69,-947.06 1137,-932.07 1151.18,-925.87 1163.93,-915.5 1174.69,-904.32"/>
<polygon fill="black" stroke="black" points="1177.32,-906.63 1181.48,-896.88 1172.15,-901.91 1177.32,-906.63"/>
</g>
<!-- node15174 -->
<g id="node2" class="node">
<title>node15174</title>
<ellipse fill="none" stroke="black" cx="277" cy="-1123.31" rx="105.22" ry="48.17"/>
<text text-anchor="middle" x="277" y="-1142.11" font-family="Monospace" font-size="14.00">andrewslai</text>
<text text-anchor="middle" x="277" y="-1127.11" font-family="Monospace" font-size="14.00">.clj</text>
<text text-anchor="middle" x="277" y="-1112.11" font-family="Monospace" font-size="14.00">.http&#45;api</text>
<text text-anchor="middle" x="277" y="-1097.11" font-family="Monospace" font-size="14.00">.virtual&#45;hosting</text>
</g>
<!-- node15175 -->
<g id="node3" class="node">
<title>node15175</title>
<ellipse fill="none" stroke="black" cx="465" cy="-1123.31" rx="75.82" ry="48.17"/>
<text text-anchor="middle" x="465" y="-1142.11" font-family="Monospace" font-size="14.00">andrewslai</text>
<text text-anchor="middle" x="465" y="-1127.11" font-family="Monospace" font-size="14.00">.clj</text>
<text text-anchor="middle" x="465" y="-1112.11" font-family="Monospace" font-size="14.00">.http&#45;api</text>
<text text-anchor="middle" x="465" y="-1097.11" font-family="Monospace" font-size="14.00">.andrewslai</text>
</g>
<!-- node15175&#45;&gt;node15173 -->
<g id="edge9" class="edge">
<title>node15175&#45;&gt;node15173</title>
<path fill="none" stroke="black" d="M439.69,-1077.97C433.16,-1066.52 426.05,-1054.07 419.29,-1042.22"/>
<polygon fill="black" stroke="black" points="422.19,-1040.25 414.2,-1033.3 416.11,-1043.72 422.19,-1040.25"/>
</g>
<!-- node15176 -->
<g id="node4" class="node">
<title>node15176</title>
<ellipse fill="none" stroke="black" cx="542" cy="-988.15" rx="75.82" ry="48.17"/>
<text text-anchor="middle" x="542" y="-1006.95" font-family="Monospace" font-size="14.00">andrewslai</text>
<text text-anchor="middle" x="542" y="-991.95" font-family="Monospace" font-size="14.00">.clj</text>
<text text-anchor="middle" x="542" y="-976.95" font-family="Monospace" font-size="14.00">.http&#45;api</text>
<text text-anchor="middle" x="542" y="-961.95" font-family="Monospace" font-size="14.00">.middleware</text>
</g>
<!-- node15175&#45;&gt;node15176 -->
<g id="edge10" class="edge">
<title>node15175&#45;&gt;node15176</title>
<path fill="none" stroke="black" d="M490.64,-1077.97C497.19,-1066.64 504.31,-1054.33 511.1,-1042.59"/>
<polygon fill="black" stroke="black" points="514.23,-1044.16 516.21,-1033.75 508.17,-1040.66 514.23,-1044.16"/>
</g>
<!-- node15175&#45;&gt;node15177 -->
<g id="edge11" class="edge">
<title>node15175&#45;&gt;node15177</title>
<path fill="none" stroke="black" d="M414.21,-1087.47C404.85,-1082.52 394.9,-1078.13 385,-1075.23 373.47,-1071.86 177.33,-1075.88 169,-1067.23 159.2,-1057.06 162.9,-952.81 169,-940.07 178.69,-919.83 195.71,-902.84 213.37,-889.45"/>
<polygon fill="black" stroke="black" points="215.46,-892.25 221.5,-883.55 211.35,-886.59 215.46,-892.25"/>
</g>
<!-- node15179 -->
<g id="node7" class="node">
<title>node15179</title>
<ellipse fill="none" stroke="black" cx="695" cy="-988.15" rx="70.01" ry="48.17"/>
<text text-anchor="middle" x="695" y="-1006.95" font-family="Monospace" font-size="14.00">andrewslai</text>
<text text-anchor="middle" x="695" y="-991.95" font-family="Monospace" font-size="14.00">.clj</text>
<text text-anchor="middle" x="695" y="-976.95" font-family="Monospace" font-size="14.00">.http&#45;api</text>
<text text-anchor="middle" x="695" y="-961.95" font-family="Monospace" font-size="14.00">.ping</text>
</g>
<!-- node15175&#45;&gt;node15179 -->
<g id="edge12" class="edge">
<title>node15175&#45;&gt;node15179</title>
<path fill="none" stroke="black" d="M535.44,-1105.19C563.45,-1096.45 595.1,-1084.04 621,-1067.23 633.22,-1059.3 644.86,-1048.95 655.14,-1038.4"/>
<polygon fill="black" stroke="black" points="657.73,-1040.76 662.04,-1031.08 652.63,-1035.96 657.73,-1040.76"/>
</g>
<!-- node15181 -->
<g id="node9" class="node">
<title>node15181</title>
<ellipse fill="none" stroke="black" cx="242" cy="-988.15" rx="70.01" ry="48.17"/>
<text text-anchor="middle" x="242" y="-1006.95" font-family="Monospace" font-size="14.00">andrewslai</text>
<text text-anchor="middle" x="242" y="-991.95" font-family="Monospace" font-size="14.00">.clj</text>
<text text-anchor="middle" x="242" y="-976.95" font-family="Monospace" font-size="14.00">.http&#45;api</text>
<text text-anchor="middle" x="242" y="-961.95" font-family="Monospace" font-size="14.00">.portfolio</text>
</g>
<!-- node15175&#45;&gt;node15181 -->
<g id="edge13" class="edge">
<title>node15175&#45;&gt;node15181</title>
<path fill="none" stroke="black" d="M413.56,-1087.89C404.36,-1082.95 394.63,-1078.46 385,-1075.23 355.73,-1065.41 343.61,-1081.04 316,-1067.23 302.43,-1060.44 290.02,-1050.1 279.4,-1039.14"/>
<polygon fill="black" stroke="black" points="281.69,-1036.46 272.34,-1031.49 276.55,-1041.21 281.69,-1036.46"/>
</g>
<!-- node15182 -->
<g id="node10" class="node">
<title>node15182</title>
<ellipse fill="none" stroke="black" cx="86" cy="-988.15" rx="70.01" ry="48.17"/>
<text text-anchor="middle" x="86" y="-1006.95" font-family="Monospace" font-size="14.00">andrewslai</text>
<text text-anchor="middle" x="86" y="-991.95" font-family="Monospace" font-size="14.00">.clj</text>
<text text-anchor="middle" x="86" y="-976.95" font-family="Monospace" font-size="14.00">.http&#45;api</text>
<text text-anchor="middle" x="86" y="-961.95" font-family="Monospace" font-size="14.00">.swagger</text>
</g>
<!-- node15175&#45;&gt;node15182 -->
<g id="edge14" class="edge">
<title>node15175&#45;&gt;node15182</title>
<path fill="none" stroke="black" d="M414.21,-1087.46C404.85,-1082.51 394.9,-1078.12 385,-1075.23 337.4,-1061.34 207.33,-1087.33 162,-1067.23 147.67,-1060.88 134.66,-1050.46 123.61,-1039.27"/>
<polygon fill="black" stroke="black" points="126.03,-1036.74 116.64,-1031.84 120.93,-1041.53 126.03,-1036.74"/>
</g>
<!-- node15178 -->
<g id="node6" class="node">
<title>node15178</title>
<ellipse fill="none" stroke="black" cx="871" cy="-988.15" rx="98.99" ry="48.17"/>
<text text-anchor="middle" x="871" y="-1006.95" font-family="Monospace" font-size="14.00">andrewslai</text>
<text text-anchor="middle" x="871" y="-991.95" font-family="Monospace" font-size="14.00">.clj</text>
<text text-anchor="middle" x="871" y="-976.95" font-family="Monospace" font-size="14.00">.http&#45;api</text>
<text text-anchor="middle" x="871" y="-961.95" font-family="Monospace" font-size="14.00">.static&#45;content</text>
</g>
<!-- node15195 -->
<g id="node20" class="node">
<title>node15195</title>
<ellipse fill="none" stroke="black" cx="2024" cy="-238.68" rx="70.01" ry="69.09"/>
<text text-anchor="middle" x="2024" y="-272.48" font-family="Monospace" font-size="14.00">andrewslai</text>
<text text-anchor="middle" x="2024" y="-257.48" font-family="Monospace" font-size="14.00">.clj</text>
<text text-anchor="middle" x="2024" y="-242.48" font-family="Monospace" font-size="14.00">.utils</text>
<text text-anchor="middle" x="2024" y="-227.48" font-family="Monospace" font-size="14.00">.files</text>
<text text-anchor="middle" x="2024" y="-212.48" font-family="Monospace" font-size="14.00">.protocols</text>
<text text-anchor="middle" x="2024" y="-197.48" font-family="Monospace" font-size="14.00">.core</text>
</g>
<!-- node15178&#45;&gt;node15195 -->
<g id="edge16" class="edge">
<title>node15178&#45;&gt;node15195</title>
<path fill="none" stroke="black" d="M869.07,-939.73C867,-884.69 864,-791.2 864,-710.82 864,-710.82 864,-710.82 864,-576.65 864,-110.43 1429.87,-436.59 1878,-307.97 1903.65,-300.61 1930.44,-289.26 1953.97,-277.91"/>
<polygon fill="black" stroke="black" points="1955.72,-280.95 1963.16,-273.4 1952.64,-274.67 1955.72,-280.95"/>
</g>
<!-- node15200 -->
<g id="node25" class="node">
<title>node15200</title>
<ellipse fill="none" stroke="black" cx="1657" cy="-413.27" rx="70.01" ry="48.17"/>
<text text-anchor="middle" x="1657" y="-432.07" font-family="Monospace" font-size="14.00">andrewslai</text>
<text text-anchor="middle" x="1657" y="-417.07" font-family="Monospace" font-size="14.00">.clj</text>
<text text-anchor="middle" x="1657" y="-402.07" font-family="Monospace" font-size="14.00">.utils</text>
<text text-anchor="middle" x="1657" y="-387.07" font-family="Monospace" font-size="14.00">.core</text>
</g>
<!-- node15178&#45;&gt;node15200 -->
<g id="edge17" class="edge">
<title>node15178&#45;&gt;node15200</title>
<path fill="none" stroke="black" d="M870.76,-939.84C870.74,-853.17 872.84,-675.73 890,-653.73 976.44,-542.94 1401.85,-458.22 1579.17,-427.16"/>
<polygon fill="black" stroke="black" points="1579.97,-430.57 1589.22,-425.41 1578.76,-423.68 1579.97,-430.57"/>
</g>
<!-- node15180 -->
<g id="node8" class="node">
<title>node15180</title>
<ellipse fill="none" stroke="black" cx="885" cy="-1123.31" rx="70.01" ry="48.17"/>
<text text-anchor="middle" x="885" y="-1142.11" font-family="Monospace" font-size="14.00">andrewslai</text>
<text text-anchor="middle" x="885" y="-1127.11" font-family="Monospace" font-size="14.00">.clj</text>
<text text-anchor="middle" x="885" y="-1112.11" font-family="Monospace" font-size="14.00">.http&#45;api</text>
<text text-anchor="middle" x="885" y="-1097.11" font-family="Monospace" font-size="14.00">.wedding</text>
</g>
<!-- node15180&#45;&gt;node15176 -->
<g id="edge41" class="edge">
<title>node15180&#45;&gt;node15176</title>
<path fill="none" stroke="black" d="M815.19,-1118.38C759.98,-1112.82 682.41,-1099.44 622,-1067.23 608.09,-1059.82 594.96,-1049.25 583.51,-1038.27"/>
<polygon fill="black" stroke="black" points="585.79,-1035.61 576.23,-1031.03 580.85,-1040.57 585.79,-1035.61"/>
</g>
<!-- node15180&#45;&gt;node15178 -->
<g id="edge42" class="edge">
<title>node15180&#45;&gt;node15178</title>
<path fill="none" stroke="black" d="M880.02,-1074.99C879.06,-1065.77 878.03,-1056 877.03,-1046.5"/>
<polygon fill="black" stroke="black" points="880.49,-1045.9 875.96,-1036.32 873.52,-1046.63 880.49,-1045.9"/>
</g>
<!-- node15180&#45;&gt;node15179 -->
<g id="edge43" class="edge">
<title>node15180&#45;&gt;node15179</title>
<path fill="none" stroke="black" d="M824.51,-1098.71C805.89,-1090.12 785.87,-1079.48 769,-1067.23 757.44,-1058.85 746.19,-1048.51 736.09,-1038.13"/>
<polygon fill="black" stroke="black" points="738.37,-1035.44 728.95,-1030.59 733.29,-1040.26 738.37,-1035.44"/>
</g>
<!-- node15180&#45;&gt;node15192 -->
<g id="edge39" class="edge">
<title>node15180&#45;&gt;node15192</title>
<path fill="none" stroke="black" d="M955.11,-1122.93C1061.21,-1122.3 1255.28,-1114.49 1303,-1067.23 1343.56,-1027.06 1297.62,-992.14 1321,-940.07 1327.39,-925.84 1336.85,-912.14 1346.87,-900.02"/>
<polygon fill="black" stroke="black" points="1349.65,-902.15 1353.51,-892.29 1344.34,-897.6 1349.65,-902.15"/>
</g>
<!-- node15203 -->
<g id="node27" class="node">
<title>node15203</title>
<ellipse fill="none" stroke="black" cx="1263" cy="-709.82" rx="70.01" ry="48.17"/>
<text text-anchor="middle" x="1263" y="-728.62" font-family="Monospace" font-size="14.00">andrewslai</text>
<text text-anchor="middle" x="1263" y="-713.62" font-family="Monospace" font-size="14.00">.clj</text>
<text text-anchor="middle" x="1263" y="-698.62" font-family="Monospace" font-size="14.00">.entities</text>
<text text-anchor="middle" x="1263" y="-683.62" font-family="Monospace" font-size="14.00">.album</text>
</g>
<!-- node15180&#45;&gt;node15203 -->
<g id="edge40" class="edge">
<title>node15180&#45;&gt;node15203</title>
<path fill="none" stroke="black" d="M953.44,-1112.75C1048.09,-1095.43 1215.66,-1049.12 1290,-932.07 1321.73,-882.1 1305.9,-812.85 1288.02,-765.21"/>
<polygon fill="black" stroke="black" points="1291.2,-763.73 1284.31,-755.68 1284.68,-766.27 1291.2,-763.73"/>
</g>
<!-- node15204 -->
<g id="node28" class="node">
<title>node15204</title>
<ellipse fill="none" stroke="black" cx="1410" cy="-709.82" rx="70.01" ry="48.17"/>
<text text-anchor="middle" x="1410" y="-728.62" font-family="Monospace" font-size="14.00">andrewslai</text>
<text text-anchor="middle" x="1410" y="-713.62" font-family="Monospace" font-size="14.00">.clj</text>
<text text-anchor="middle" x="1410" y="-698.62" font-family="Monospace" font-size="14.00">.entities</text>
<text text-anchor="middle" x="1410" y="-683.62" font-family="Monospace" font-size="14.00">.photo</text>
</g>
<!-- node15180&#45;&gt;node15204 -->
<g id="edge44" class="edge">
<title>node15180&#45;&gt;node15204</title>
<path fill="none" stroke="black" d="M954.92,-1120.93C1103.24,-1117.28 1438.7,-1104.9 1473,-1067.23 1513.45,-1022.82 1491.66,-854 1473,-796.9 1468.65,-783.58 1461.37,-770.62 1453.27,-758.97"/>
<polygon fill="black" stroke="black" points="1455.98,-756.74 1447.26,-750.72 1450.32,-760.87 1455.98,-756.74"/>
</g>
<!-- node15209 -->
<g id="node32" class="node">
<title>node15209</title>
<ellipse fill="none" stroke="black" cx="1064" cy="-852.98" rx="70.01" ry="48.17"/>
<text text-anchor="middle" x="1064" y="-871.78" font-family="Monospace" font-size="14.00">andrewslai</text>
<text text-anchor="middle" x="1064" y="-856.78" font-family="Monospace" font-size="14.00">.clj</text>
<text text-anchor="middle" x="1064" y="-841.78" font-family="Monospace" font-size="14.00">.api</text>
<text text-anchor="middle" x="1064" y="-826.78" font-family="Monospace" font-size="14.00">.portfolio</text>
</g>
<!-- node15181&#45;&gt;node15209 -->
<g id="edge51" class="edge">
<title>node15181&#45;&gt;node15209</title>
<path fill="none" stroke="black" d="M288.68,-952.11C297.36,-947.18 306.66,-942.85 316,-940.07 351.3,-929.55 944.76,-945.64 979,-932.07 995.35,-925.58 1010.48,-914.36 1023.31,-902.42"/>
<polygon fill="black" stroke="black" points="1025.86,-904.82 1030.58,-895.34 1020.98,-899.81 1025.86,-904.82"/>
</g>
<!-- node15184 -->
<g id="node11" class="node">
<title>node15184</title>
<ellipse fill="none" stroke="black" cx="1621" cy="-852.98" rx="116.85" ry="48.17"/>
<text text-anchor="middle" x="1621" y="-871.78" font-family="Monospace" font-size="14.00">andrewslai</text>
<text text-anchor="middle" x="1621" y="-856.78" font-family="Monospace" font-size="14.00">.clj</text>
<text text-anchor="middle" x="1621" y="-841.78" font-family="Monospace" font-size="14.00">.persistence</text>
<text text-anchor="middle" x="1621" y="-826.78" font-family="Monospace" font-size="14.00">.embedded&#45;postgres</text>
</g>
<!-- node15186 -->
<g id="node13" class="node">
<title>node15186</title>
<ellipse fill="none" stroke="black" cx="1718" cy="-709.82" rx="82.05" ry="48.17"/>
<text text-anchor="middle" x="1718" y="-728.62" font-family="Monospace" font-size="14.00">andrewslai</text>
<text text-anchor="middle" x="1718" y="-713.62" font-family="Monospace" font-size="14.00">.clj</text>
<text text-anchor="middle" x="1718" y="-698.62" font-family="Monospace" font-size="14.00">.persistence</text>
<text text-anchor="middle" x="1718" y="-683.62" font-family="Monospace" font-size="14.00">.migrations</text>
</g>
<!-- node15184&#45;&gt;node15186 -->
<g id="edge4" class="edge">
<title>node15184&#45;&gt;node15186</title>
<path fill="none" stroke="black" d="M1652.23,-806.54C1661.76,-792.66 1672.32,-777.29 1682.14,-763"/>
<polygon fill="black" stroke="black" points="1685.05,-764.95 1687.83,-754.73 1679.28,-760.99 1685.05,-764.95"/>
</g>
<!-- node15189 -->
<g id="node16" class="node">
<title>node15189</title>
<ellipse fill="none" stroke="black" cx="1786" cy="-577.65" rx="82.05" ry="48.17"/>
<text text-anchor="middle" x="1786" y="-596.45" font-family="Monospace" font-size="14.00">andrewslai</text>
<text text-anchor="middle" x="1786" y="-581.45" font-family="Monospace" font-size="14.00">.clj</text>
<text text-anchor="middle" x="1786" y="-566.45" font-family="Monospace" font-size="14.00">.persistence</text>
<text text-anchor="middle" x="1786" y="-551.45" font-family="Monospace" font-size="14.00">.rdbms</text>
</g>
<!-- node15184&#45;&gt;node15189 -->
<g id="edge5" class="edge">
<title>node15184&#45;&gt;node15189</title>
<path fill="none" stroke="black" d="M1611.04,-804.95C1604.66,-761.94 1602.34,-698.38 1632,-653.73 1637.18,-645.94 1674.47,-627.66 1711.06,-611.1"/>
<polygon fill="black" stroke="black" points="1712.65,-614.22 1720.33,-606.93 1709.77,-607.84 1712.65,-614.22"/>
</g>
<!-- node15185 -->
<g id="node12" class="node">
<title>node15185</title>
<ellipse fill="none" stroke="black" cx="1998" cy="-852.98" rx="82.05" ry="48.17"/>
<text text-anchor="middle" x="1998" y="-871.78" font-family="Monospace" font-size="14.00">andrewslai</text>
<text text-anchor="middle" x="1998" y="-856.78" font-family="Monospace" font-size="14.00">.clj</text>
<text text-anchor="middle" x="1998" y="-841.78" font-family="Monospace" font-size="14.00">.persistence</text>
<text text-anchor="middle" x="1998" y="-826.78" font-family="Monospace" font-size="14.00">.memory</text>
</g>
<!-- node15196 -->
<g id="node21" class="node">
<title>node15196</title>
<ellipse fill="none" stroke="black" cx="1951" cy="-413.27" rx="70.01" ry="69.09"/>
<text text-anchor="middle" x="1951" y="-447.07" font-family="Monospace" font-size="14.00">andrewslai</text>
<text text-anchor="middle" x="1951" y="-432.07" font-family="Monospace" font-size="14.00">.clj</text>
<text text-anchor="middle" x="1951" y="-417.07" font-family="Monospace" font-size="14.00">.utils</text>
<text text-anchor="middle" x="1951" y="-402.07" font-family="Monospace" font-size="14.00">.files</text>
<text text-anchor="middle" x="1951" y="-387.07" font-family="Monospace" font-size="14.00">.protocols</text>
<text text-anchor="middle" x="1951" y="-372.07" font-family="Monospace" font-size="14.00">.mem</text>
</g>
<!-- node15185&#45;&gt;node15196 -->
<g id="edge7" class="edge">
<title>node15185&#45;&gt;node15196</title>
<path fill="none" stroke="black" d="M1992.93,-804.72C1984.88,-729.83 1969.13,-583.08 1959.39,-492.37"/>
<polygon fill="black" stroke="black" points="1962.86,-491.98 1958.32,-482.41 1955.9,-492.73 1962.86,-491.98"/>
</g>
<!-- node15188 -->
<g id="node15" class="node">
<title>node15188</title>
<ellipse fill="none" stroke="black" cx="1586" cy="-577.65" rx="82.05" ry="48.17"/>
<text text-anchor="middle" x="1586" y="-596.45" font-family="Monospace" font-size="14.00">andrewslai</text>
<text text-anchor="middle" x="1586" y="-581.45" font-family="Monospace" font-size="14.00">.clj</text>
<text text-anchor="middle" x="1586" y="-566.45" font-family="Monospace" font-size="14.00">.persistence</text>
<text text-anchor="middle" x="1586" y="-551.45" font-family="Monospace" font-size="14.00">.postgres</text>
</g>
<!-- node15186&#45;&gt;node15188 -->
<g id="edge37" class="edge">
<title>node15186&#45;&gt;node15188</title>
<path fill="none" stroke="black" d="M1676.6,-667.99C1663.2,-654.78 1648.24,-640.02 1634.38,-626.36"/>
<polygon fill="black" stroke="black" points="1636.83,-623.86 1627.26,-619.33 1631.92,-628.85 1636.83,-623.86"/>
</g>
<!-- node15186&#45;&gt;node15189 -->
<g id="edge38" class="edge">
<title>node15186&#45;&gt;node15189</title>
<path fill="none" stroke="black" d="M1741.59,-663.65C1746.81,-653.66 1752.4,-642.97 1757.78,-632.66"/>
<polygon fill="black" stroke="black" points="1760.92,-634.21 1762.45,-623.73 1754.72,-630.97 1760.92,-634.21"/>
</g>
<!-- node15187 -->
<g id="node14" class="node">
<title>node15187</title>
<ellipse fill="none" stroke="black" cx="2169" cy="-852.98" rx="82.05" ry="48.17"/>
<text text-anchor="middle" x="2169" y="-871.78" font-family="Monospace" font-size="14.00">andrewslai</text>
<text text-anchor="middle" x="2169" y="-856.78" font-family="Monospace" font-size="14.00">.clj</text>
<text text-anchor="middle" x="2169" y="-841.78" font-family="Monospace" font-size="14.00">.persistence</text>
<text text-anchor="middle" x="2169" y="-826.78" font-family="Monospace" font-size="14.00">.s3</text>
</g>
<!-- node15201 -->
<g id="node26" class="node">
<title>node15201</title>
<ellipse fill="none" stroke="black" cx="2098" cy="-413.27" rx="70.01" ry="69.09"/>
<text text-anchor="middle" x="2098" y="-447.07" font-family="Monospace" font-size="14.00">andrewslai</text>
<text text-anchor="middle" x="2098" y="-432.07" font-family="Monospace" font-size="14.00">.clj</text>
<text text-anchor="middle" x="2098" y="-417.07" font-family="Monospace" font-size="14.00">.utils</text>
<text text-anchor="middle" x="2098" y="-402.07" font-family="Monospace" font-size="14.00">.files</text>
<text text-anchor="middle" x="2098" y="-387.07" font-family="Monospace" font-size="14.00">.protocols</text>
<text text-anchor="middle" x="2098" y="-372.07" font-family="Monospace" font-size="14.00">.s3</text>
</g>
<!-- node15187&#45;&gt;node15201 -->
<g id="edge45" class="edge">
<title>node15187&#45;&gt;node15201</title>
<path fill="none" stroke="black" d="M2161.33,-804.72C2149.17,-729.72 2125.32,-582.67 2110.61,-491.99"/>
<polygon fill="black" stroke="black" points="2114.05,-491.34 2108.99,-482.03 2107.14,-492.46 2114.05,-491.34"/>
</g>
<!-- node15188&#45;&gt;node15200 -->
<g id="edge46" class="edge">
<title>node15188&#45;&gt;node15200</title>
<path fill="none" stroke="black" d="M1605.97,-530.98C1614.39,-511.71 1624.28,-489.11 1633.09,-468.96"/>
<polygon fill="black" stroke="black" points="1636.38,-470.15 1637.18,-459.59 1629.97,-467.35 1636.38,-470.15"/>
</g>
<!-- node15190 -->
<g id="node17" class="node">
<title>node15190</title>
<ellipse fill="none" stroke="black" cx="1827" cy="-852.98" rx="82.05" ry="48.17"/>
<text text-anchor="middle" x="1827" y="-871.78" font-family="Monospace" font-size="14.00">andrewslai</text>
<text text-anchor="middle" x="1827" y="-856.78" font-family="Monospace" font-size="14.00">.clj</text>
<text text-anchor="middle" x="1827" y="-841.78" font-family="Monospace" font-size="14.00">.persistence</text>
<text text-anchor="middle" x="1827" y="-826.78" font-family="Monospace" font-size="14.00">.embedded&#45;h2</text>
</g>
<!-- node15190&#45;&gt;node15186 -->
<g id="edge49" class="edge">
<title>node15190&#45;&gt;node15186</title>
<path fill="none" stroke="black" d="M1793.7,-808.86C1782.4,-794.22 1769.65,-777.71 1757.89,-762.47"/>
<polygon fill="black" stroke="black" points="1760.35,-759.94 1751.47,-754.16 1754.81,-764.21 1760.35,-759.94"/>
</g>
<!-- node15190&#45;&gt;node15189 -->
<g id="edge50" class="edge">
<title>node15190&#45;&gt;node15189</title>
<path fill="none" stroke="black" d="M1823.14,-804.89C1819.45,-764.57 1813.1,-705.08 1804,-653.73 1802.93,-647.67 1801.66,-641.36 1800.3,-635.1"/>
<polygon fill="black" stroke="black" points="1803.71,-634.32 1798.11,-625.33 1796.88,-635.85 1803.71,-634.32"/>
</g>
<!-- node15193 -->
<g id="node19" class="node">
<title>node15193</title>
<ellipse fill="none" stroke="black" cx="1394" cy="-988.15" rx="70.01" ry="48.17"/>
<text text-anchor="middle" x="1394" y="-1006.95" font-family="Monospace" font-size="14.00">andrewslai</text>
<text text-anchor="middle" x="1394" y="-991.95" font-family="Monospace" font-size="14.00">.clj</text>
<text text-anchor="middle" x="1394" y="-976.95" font-family="Monospace" font-size="14.00">.auth</text>
<text text-anchor="middle" x="1394" y="-961.95" font-family="Monospace" font-size="14.00">.keycloak</text>
</g>
<!-- node15193&#45;&gt;node15192 -->
<g id="edge48" class="edge">
<title>node15193&#45;&gt;node15192</title>
<path fill="none" stroke="black" d="M1394,-939.82C1394,-930.6 1394,-920.84 1394,-911.33"/>
<polygon fill="black" stroke="black" points="1397.5,-911.15 1394,-901.15 1390.5,-911.15 1397.5,-911.15"/>
</g>
<!-- node15196&#45;&gt;node15195 -->
<g id="edge6" class="edge">
<title>node15196&#45;&gt;node15195</title>
<path fill="none" stroke="black" d="M1977.77,-348.98C1982.83,-337.02 1988.15,-324.43 1993.32,-312.21"/>
<polygon fill="black" stroke="black" points="1996.56,-313.53 1997.24,-302.96 1990.12,-310.8 1996.56,-313.53"/>
</g>
<!-- node15197 -->
<g id="node22" class="node">
<title>node15197</title>
<ellipse fill="none" stroke="black" cx="1804" cy="-238.68" rx="70.01" ry="58.88"/>
<text text-anchor="middle" x="1804" y="-264.98" font-family="Monospace" font-size="14.00">andrewslai</text>
<text text-anchor="middle" x="1804" y="-249.98" font-family="Monospace" font-size="14.00">.clj</text>
<text text-anchor="middle" x="1804" y="-234.98" font-family="Monospace" font-size="14.00">.utils</text>
<text text-anchor="middle" x="1804" y="-219.98" font-family="Monospace" font-size="14.00">.files</text>
<text text-anchor="middle" x="1804" y="-204.98" font-family="Monospace" font-size="14.00">.core</text>
</g>
<!-- node15199 -->
<g id="node24" class="node">
<title>node15199</title>
<ellipse fill="none" stroke="black" cx="1804" cy="-74.69" rx="75.82" ry="58.88"/>
<text text-anchor="middle" x="1804" y="-100.99" font-family="Monospace" font-size="14.00">andrewslai</text>
<text text-anchor="middle" x="1804" y="-85.99" font-family="Monospace" font-size="14.00">.clj</text>
<text text-anchor="middle" x="1804" y="-70.99" font-family="Monospace" font-size="14.00">.utils</text>
<text text-anchor="middle" x="1804" y="-55.99" font-family="Monospace" font-size="14.00">.files</text>
<text text-anchor="middle" x="1804" y="-40.99" font-family="Monospace" font-size="14.00">.mime&#45;types</text>
</g>
<!-- node15197&#45;&gt;node15199 -->
<g id="edge22" class="edge">
<title>node15197&#45;&gt;node15199</title>
<path fill="none" stroke="black" d="M1804,-179.65C1804,-168.07 1804,-155.8 1804,-143.91"/>
<polygon fill="black" stroke="black" points="1807.5,-143.58 1804,-133.58 1800.5,-143.58 1807.5,-143.58"/>
</g>
<!-- node15198 -->
<g id="node23" class="node">
<title>node15198</title>
<ellipse fill="none" stroke="black" cx="1804" cy="-413.27" rx="70.01" ry="58.88"/>
<text text-anchor="middle" x="1804" y="-439.57" font-family="Monospace" font-size="14.00">andrewslai</text>
<text text-anchor="middle" x="1804" y="-424.57" font-family="Monospace" font-size="14.00">.clj</text>
<text text-anchor="middle" x="1804" y="-409.57" font-family="Monospace" font-size="14.00">.utils</text>
<text text-anchor="middle" x="1804" y="-394.57" font-family="Monospace" font-size="14.00">.files</text>
<text text-anchor="middle" x="1804" y="-379.57" font-family="Monospace" font-size="14.00">.images</text>
</g>
<!-- node15198&#45;&gt;node15197 -->
<g id="edge23" class="edge">
<title>node15198&#45;&gt;node15197</title>
<path fill="none" stroke="black" d="M1804,-354.32C1804,-339.3 1804,-322.98 1804,-307.5"/>
<polygon fill="black" stroke="black" points="1807.5,-307.47 1804,-297.47 1800.5,-307.47 1807.5,-307.47"/>
</g>
<!-- node15201&#45;&gt;node15195 -->
<g id="edge52" class="edge">
<title>node15201&#45;&gt;node15195</title>
<path fill="none" stroke="black" d="M2070.87,-348.98C2065.7,-336.95 2060.27,-324.26 2055,-311.97"/>
<polygon fill="black" stroke="black" points="2058.17,-310.48 2051.01,-302.67 2051.73,-313.24 2058.17,-310.48"/>
</g>
<!-- node15203&#45;&gt;node15188 -->
<g id="edge8" class="edge">
<title>node15203&#45;&gt;node15188</title>
<path fill="none" stroke="black" d="M1307.17,-672.1C1316.63,-665.36 1326.84,-658.85 1337,-653.73 1388.22,-627.95 1449.9,-609.27 1499.06,-596.99"/>
<polygon fill="black" stroke="black" points="1500.15,-600.32 1509.03,-594.54 1498.49,-593.53 1500.15,-600.32"/>
</g>
<!-- node15204&#45;&gt;node15188 -->
<g id="edge24" class="edge">
<title>node15204&#45;&gt;node15188</title>
<path fill="none" stroke="black" d="M1457.16,-673.93C1478.75,-657.97 1504.54,-638.89 1527.36,-622.02"/>
<polygon fill="black" stroke="black" points="1529.66,-624.67 1535.62,-615.91 1525.5,-619.04 1529.66,-624.67"/>
</g>
<!-- node15205 -->
<g id="node29" class="node">
<title>node15205</title>
<ellipse fill="none" stroke="black" cx="969" cy="-709.82" rx="70.01" ry="48.17"/>
<text text-anchor="middle" x="969" y="-728.62" font-family="Monospace" font-size="14.00">andrewslai</text>
<text text-anchor="middle" x="969" y="-713.62" font-family="Monospace" font-size="14.00">.clj</text>
<text text-anchor="middle" x="969" y="-698.62" font-family="Monospace" font-size="14.00">.entities</text>
<text text-anchor="middle" x="969" y="-683.62" font-family="Monospace" font-size="14.00">.portfolio</text>
</g>
<!-- node15205&#45;&gt;node15188 -->
<g id="edge36" class="edge">
<title>node15205&#45;&gt;node15188</title>
<path fill="none" stroke="black" d="M1011.79,-671.41C1021.51,-664.55 1032.18,-658.16 1043,-653.73 1122.83,-621.05 1361.87,-597 1494.62,-585.75"/>
<polygon fill="black" stroke="black" points="1495.11,-589.22 1504.78,-584.9 1494.52,-582.25 1495.11,-589.22"/>
</g>
<!-- node15206 -->
<g id="node30" class="node">
<title>node15206</title>
<ellipse fill="none" stroke="black" cx="1116" cy="-709.82" rx="70.01" ry="48.17"/>
<text text-anchor="middle" x="1116" y="-728.62" font-family="Monospace" font-size="14.00">andrewslai</text>
<text text-anchor="middle" x="1116" y="-713.62" font-family="Monospace" font-size="14.00">.clj</text>
<text text-anchor="middle" x="1116" y="-698.62" font-family="Monospace" font-size="14.00">.entities</text>
<text text-anchor="middle" x="1116" y="-683.62" font-family="Monospace" font-size="14.00">.article</text>
</g>
<!-- node15206&#45;&gt;node15188 -->
<g id="edge47" class="edge">
<title>node15206&#45;&gt;node15188</title>
<path fill="none" stroke="black" d="M1158.97,-671.82C1168.68,-664.93 1179.29,-658.43 1190,-653.73 1288.57,-610.47 1411.67,-592.09 1494.22,-584.31"/>
<polygon fill="black" stroke="black" points="1494.7,-587.78 1504.34,-583.39 1494.06,-580.81 1494.7,-587.78"/>
</g>
<!-- node15208&#45;&gt;node15206 -->
<g id="edge15" class="edge">
<title>node15208&#45;&gt;node15206</title>
<path fill="none" stroke="black" d="M1181.98,-808.86C1172.04,-794.08 1160.81,-777.4 1150.48,-762.05"/>
<polygon fill="black" stroke="black" points="1153.33,-760.02 1144.84,-753.67 1147.52,-763.92 1153.33,-760.02"/>
</g>
<!-- node15209&#45;&gt;node15205 -->
<g id="edge25" class="edge">
<title>node15209&#45;&gt;node15205</title>
<path fill="none" stroke="black" d="M1034.98,-808.86C1025.04,-794.08 1013.81,-777.4 1003.48,-762.05"/>
<polygon fill="black" stroke="black" points="1006.33,-760.02 997.84,-753.67 1000.52,-763.92 1006.33,-760.02"/>
</g>
<!-- node15211 -->
<g id="node33" class="node">
<title>node15211</title>
<ellipse fill="none" stroke="black" cx="706" cy="-1255.87" rx="70.01" ry="37.45"/>
<text text-anchor="middle" x="706" y="-1267.17" font-family="Monospace" font-size="14.00">andrewslai</text>
<text text-anchor="middle" x="706" y="-1252.17" font-family="Monospace" font-size="14.00">.clj</text>
<text text-anchor="middle" x="706" y="-1237.17" font-family="Monospace" font-size="14.00">.main</text>
</g>
<!-- node15211&#45;&gt;node15174 -->
<g id="edge18" class="edge">
<title>node15211&#45;&gt;node15174</title>
<path fill="none" stroke="black" d="M636.09,-1252.55C569.53,-1248.26 467.68,-1236.17 386,-1202.4 367.77,-1194.86 349.67,-1183.76 333.61,-1172.28"/>
<polygon fill="black" stroke="black" points="335.54,-1169.35 325.4,-1166.26 331.39,-1175 335.54,-1169.35"/>
</g>
<!-- node15211&#45;&gt;node15175 -->
<g id="edge19" class="edge">
<title>node15211&#45;&gt;node15175</title>
<path fill="none" stroke="black" d="M657.52,-1228.61C621.1,-1208.88 570.82,-1181.64 530.77,-1159.95"/>
<polygon fill="black" stroke="black" points="532.33,-1156.81 521.87,-1155.13 529,-1162.97 532.33,-1156.81"/>
</g>
<!-- node15211&#45;&gt;node15180 -->
<g id="edge21" class="edge">
<title>node15211&#45;&gt;node15180</title>
<path fill="none" stroke="black" d="M746.62,-1225.25C771.11,-1207.39 802.65,-1184.38 829.43,-1164.85"/>
<polygon fill="black" stroke="black" points="831.55,-1167.63 837.57,-1158.91 827.43,-1161.97 831.55,-1167.63"/>
</g>
<!-- node15213 -->
<g id="node34" class="node">
<title>node15213</title>
<ellipse fill="none" stroke="black" cx="1621" cy="-1123.31" rx="70.01" ry="37.45"/>
<text text-anchor="middle" x="1621" y="-1134.61" font-family="Monospace" font-size="14.00">andrewslai</text>
<text text-anchor="middle" x="1621" y="-1119.61" font-family="Monospace" font-size="14.00">.clj</text>
<text text-anchor="middle" x="1621" y="-1104.61" font-family="Monospace" font-size="14.00">.config</text>
</g>
<!-- node15211&#45;&gt;node15213 -->
<g id="edge20" class="edge">
<title>node15211&#45;&gt;node15213</title>
<path fill="none" stroke="black" d="M773.28,-1245.27C939.27,-1221.59 1367.57,-1160.48 1543.65,-1135.35"/>
<polygon fill="black" stroke="black" points="1544.21,-1138.81 1553.62,-1133.93 1543.23,-1131.88 1544.21,-1138.81"/>
</g>
<!-- node15213&#45;&gt;node15178 -->
<g id="edge29" class="edge">
<title>node15213&#45;&gt;node15178</title>
<path fill="none" stroke="black" d="M1555.1,-1110.61C1424.11,-1087.36 1130.18,-1035.17 973.66,-1007.38"/>
<polygon fill="black" stroke="black" points="974.01,-1003.88 963.55,-1005.58 972.79,-1010.78 974.01,-1003.88"/>
</g>
<!-- node15213&#45;&gt;node15180 -->
<g id="edge30" class="edge">
<title>node15213&#45;&gt;node15180</title>
<path fill="none" stroke="black" d="M1550.77,-1123.31C1355.6,-1123.31 1160.43,-1123.31 965.26,-1123.31"/>
<polygon fill="black" stroke="black" points="965.08,-1119.82 955.08,-1123.31 965.08,-1126.82 965.08,-1119.82"/>
</g>
<!-- node15213&#45;&gt;node15184 -->
<g id="edge26" class="edge">
<title>node15213&#45;&gt;node15184</title>
<path fill="none" stroke="black" d="M1621,-1085.57C1621,-1040.62 1621,-964.03 1621,-911.32"/>
<polygon fill="black" stroke="black" points="1624.5,-911.11 1621,-901.11 1617.5,-911.11 1624.5,-911.11"/>
</g>
<!-- node15213&#45;&gt;node15187 -->
<g id="edge31" class="edge">
<title>node15213&#45;&gt;node15187</title>
<path fill="none" stroke="black" d="M1681.8,-1104.74C1773.33,-1076.67 1949.94,-1016.22 2083,-932.07 2096.42,-923.58 2109.72,-912.92 2121.71,-902.24"/>
<polygon fill="black" stroke="black" points="2124.36,-904.56 2129.39,-895.23 2119.64,-899.39 2124.36,-904.56"/>
</g>
<!-- node15213&#45;&gt;node15188 -->
<g id="edge32" class="edge">
<title>node15213&#45;&gt;node15188</title>
<path fill="none" stroke="black" d="M1689.54,-1114.99C1754.26,-1107 1853.57,-1091.93 1937,-1067.23 2083.86,-1023.76 2169.57,-1059.85 2254,-932.07 2270.56,-907 2271.73,-821.14 2254,-796.9 2101.88,-588.88 1944.02,-708.59 1700,-625.73 1687.03,-621.33 1673.42,-616.18 1660.31,-610.95"/>
<polygon fill="black" stroke="black" points="1661.44,-607.63 1650.86,-607.12 1658.82,-614.12 1661.44,-607.63"/>
</g>
<!-- node15213&#45;&gt;node15189 -->
<g id="edge34" class="edge">
<title>node15213&#45;&gt;node15189</title>
<path fill="none" stroke="black" d="M1690.92,-1118.99C1804.93,-1112.77 2025.34,-1097.22 2097,-1067.23 2185.4,-1030.23 2223.61,-1018.5 2265,-932.07 2290.95,-877.88 2293.86,-849.59 2265,-796.9 2208.25,-693.27 2148.52,-702.72 2041,-653.73 1986.96,-629.11 1922.83,-610.27 1872.39,-597.62"/>
<polygon fill="black" stroke="black" points="1873.04,-594.18 1862.5,-595.18 1871.36,-600.97 1873.04,-594.18"/>
</g>
<!-- node15213&#45;&gt;node15190 -->
<g id="edge35" class="edge">
<title>node15213&#45;&gt;node15190</title>
<path fill="none" stroke="black" d="M1647.09,-1088.33C1682.51,-1042.19 1746.14,-959.31 1787.45,-905.5"/>
<polygon fill="black" stroke="black" points="1790.32,-907.51 1793.63,-897.45 1784.76,-903.25 1790.32,-907.51"/>
</g>
<!-- node15213&#45;&gt;node15192 -->
<g id="edge27" class="edge">
<title>node15213&#45;&gt;node15192</title>
<path fill="none" stroke="black" d="M1592.92,-1088.63C1562.32,-1051.97 1511.87,-991.7 1468,-940.07 1457.64,-927.87 1446.4,-914.75 1435.89,-902.51"/>
<polygon fill="black" stroke="black" points="1438.28,-899.92 1429.11,-894.62 1432.97,-904.49 1438.28,-899.92"/>
</g>
<!-- node15213&#45;&gt;node15193 -->
<g id="edge33" class="edge">
<title>node15213&#45;&gt;node15193</title>
<path fill="none" stroke="black" d="M1574.52,-1095.05C1540.17,-1074.9 1493.07,-1047.27 1455.6,-1025.28"/>
<polygon fill="black" stroke="black" points="1457.18,-1022.15 1446.78,-1020.11 1453.64,-1028.19 1457.18,-1022.15"/>
</g>
<!-- node15213&#45;&gt;node15195 -->
<g id="edge28" class="edge">
<title>node15213&#45;&gt;node15195</title>
<path fill="none" stroke="black" d="M1691.21,-1122.54C1822.87,-1121.81 2100.99,-1114.52 2183,-1067.23 2275.21,-1014.06 2292,-960.42 2292,-853.98 2292,-853.98 2292,-853.98 2292,-576.65 2292,-460.29 2248.42,-431.71 2172,-343.97 2149.92,-318.63 2120.47,-296.26 2093.65,-278.8"/>
<polygon fill="black" stroke="black" points="2095.36,-275.74 2085.05,-273.31 2091.6,-281.64 2095.36,-275.74"/>
</g>
</g>
</svg>
